<mxfile host="app.diagrams.net" modified="2020-12-21T11:09:46.266Z" agent="5.0 (Windows NT 10.0; Win64; x64) AppleWebKit/537.36 (KHTML, like Gecko) Chrome/87.0.4280.88 Safari/537.36" etag="isugJ3a49QHEUZAp1Z2B" version="14.1.1" type="github">
  <diagram id="l2xPoOED2tzPMq1VouJg" name="Page-1">
    <mxGraphModel dx="1185" dy="662" grid="1" gridSize="10" guides="1" tooltips="1" connect="1" arrows="1" fold="1" page="1" pageScale="1" pageWidth="827" pageHeight="1169" math="0" shadow="0">
      <root>
        <mxCell id="0" />
        <mxCell id="1" parent="0" />
        <mxCell id="_soJR6rPgarh7yNmM4_I-2" value="" style="rounded=1;whiteSpace=wrap;html=1;" vertex="1" parent="1">
          <mxGeometry x="160" y="350" width="260" height="130" as="geometry" />
        </mxCell>
        <mxCell id="_soJR6rPgarh7yNmM4_I-4" value="k8s集群&lt;br&gt;开发环境" style="text;html=1;strokeColor=none;fillColor=none;align=center;verticalAlign=middle;whiteSpace=wrap;rounded=0;" vertex="1" parent="1">
          <mxGeometry x="85" y="395" width="75" height="40" as="geometry" />
        </mxCell>
        <mxCell id="_soJR6rPgarh7yNmM4_I-6" value="后台应用A" style="rounded=0;whiteSpace=wrap;html=1;" vertex="1" parent="1">
          <mxGeometry x="294" y="400" width="80" height="30" as="geometry" />
        </mxCell>
        <mxCell id="_soJR6rPgarh7yNmM4_I-8" value="后台应用B" style="rounded=0;whiteSpace=wrap;html=1;" vertex="1" parent="1">
          <mxGeometry x="199" y="400" width="80" height="30" as="geometry" />
        </mxCell>
        <mxCell id="_soJR6rPgarh7yNmM4_I-9" value="后台应用C" style="rounded=0;whiteSpace=wrap;html=1;" vertex="1" parent="1">
          <mxGeometry x="199" y="440" width="80" height="30" as="geometry" />
        </mxCell>
        <mxCell id="_soJR6rPgarh7yNmM4_I-10" value="前端应用" style="rounded=0;whiteSpace=wrap;html=1;" vertex="1" parent="1">
          <mxGeometry x="201.5" y="360" width="80" height="30" as="geometry" />
        </mxCell>
        <mxCell id="_soJR6rPgarh7yNmM4_I-12" value="后台应用D" style="rounded=0;whiteSpace=wrap;html=1;" vertex="1" parent="1">
          <mxGeometry x="294" y="440" width="80" height="30" as="geometry" />
        </mxCell>
        <mxCell id="_soJR6rPgarh7yNmM4_I-16" value="" style="rounded=0;whiteSpace=wrap;html=1;dashed=1;fillColor=none;" vertex="1" parent="1">
          <mxGeometry x="85" y="270" width="720" height="250" as="geometry" />
        </mxCell>
        <mxCell id="_soJR6rPgarh7yNmM4_I-18" value="IP:端口" style="ellipse;whiteSpace=wrap;html=1;fillColor=#fff2cc;strokeColor=#d6b656;" vertex="1" parent="1">
          <mxGeometry x="214" y="340" width="50" height="20" as="geometry" />
        </mxCell>
        <mxCell id="_soJR6rPgarh7yNmM4_I-19" value="Nginx" style="rounded=1;whiteSpace=wrap;html=1;fillColor=#d5e8d4;strokeColor=#82b366;" vertex="1" parent="1">
          <mxGeometry x="407.5" y="250" width="120" height="40" as="geometry" />
        </mxCell>
        <mxCell id="_soJR6rPgarh7yNmM4_I-29" value="前端应用" style="rounded=0;whiteSpace=wrap;html=1;" vertex="1" parent="1">
          <mxGeometry x="294" y="360" width="80" height="30" as="geometry" />
        </mxCell>
        <mxCell id="_soJR6rPgarh7yNmM4_I-30" value="IP:端口" style="ellipse;whiteSpace=wrap;html=1;fillColor=#fff2cc;strokeColor=#d6b656;" vertex="1" parent="1">
          <mxGeometry x="306.5" y="340" width="50" height="20" as="geometry" />
        </mxCell>
        <mxCell id="_soJR6rPgarh7yNmM4_I-31" value="" style="rounded=1;whiteSpace=wrap;html=1;" vertex="1" parent="1">
          <mxGeometry x="510" y="350" width="260" height="130" as="geometry" />
        </mxCell>
        <mxCell id="_soJR6rPgarh7yNmM4_I-32" value="k8s集群&lt;br&gt;测试环境" style="text;html=1;strokeColor=none;fillColor=none;align=center;verticalAlign=middle;whiteSpace=wrap;rounded=0;" vertex="1" parent="1">
          <mxGeometry x="430" y="400" width="75" height="30" as="geometry" />
        </mxCell>
        <mxCell id="_soJR6rPgarh7yNmM4_I-33" value="后台应用A" style="rounded=0;whiteSpace=wrap;html=1;" vertex="1" parent="1">
          <mxGeometry x="644" y="400" width="80" height="30" as="geometry" />
        </mxCell>
        <mxCell id="_soJR6rPgarh7yNmM4_I-34" value="后台应用B" style="rounded=0;whiteSpace=wrap;html=1;" vertex="1" parent="1">
          <mxGeometry x="549" y="400" width="80" height="30" as="geometry" />
        </mxCell>
        <mxCell id="_soJR6rPgarh7yNmM4_I-35" value="后台应用C" style="rounded=0;whiteSpace=wrap;html=1;" vertex="1" parent="1">
          <mxGeometry x="549" y="440" width="80" height="30" as="geometry" />
        </mxCell>
        <mxCell id="_soJR6rPgarh7yNmM4_I-36" value="前端应用" style="rounded=0;whiteSpace=wrap;html=1;" vertex="1" parent="1">
          <mxGeometry x="551.5" y="360" width="80" height="30" as="geometry" />
        </mxCell>
        <mxCell id="_soJR6rPgarh7yNmM4_I-37" value="后台应用D" style="rounded=0;whiteSpace=wrap;html=1;" vertex="1" parent="1">
          <mxGeometry x="644" y="440" width="80" height="30" as="geometry" />
        </mxCell>
        <mxCell id="_soJR6rPgarh7yNmM4_I-38" value="IP:端口" style="ellipse;whiteSpace=wrap;html=1;fillColor=#fff2cc;strokeColor=#d6b656;" vertex="1" parent="1">
          <mxGeometry x="564" y="340" width="50" height="20" as="geometry" />
        </mxCell>
        <mxCell id="_soJR6rPgarh7yNmM4_I-39" value="前端应用" style="rounded=0;whiteSpace=wrap;html=1;" vertex="1" parent="1">
          <mxGeometry x="644" y="360" width="80" height="30" as="geometry" />
        </mxCell>
        <mxCell id="_soJR6rPgarh7yNmM4_I-40" value="IP:端口" style="ellipse;whiteSpace=wrap;html=1;fillColor=#fff2cc;strokeColor=#d6b656;" vertex="1" parent="1">
          <mxGeometry x="656.5" y="340" width="50" height="20" as="geometry" />
        </mxCell>
        <mxCell id="_soJR6rPgarh7yNmM4_I-42" value="自己搭建Nginx" style="text;html=1;strokeColor=none;fillColor=none;align=center;verticalAlign=middle;whiteSpace=wrap;rounded=0;" vertex="1" parent="1">
          <mxGeometry x="407.5" y="230" width="120" height="20" as="geometry" />
        </mxCell>
        <mxCell id="_soJR6rPgarh7yNmM4_I-43" value="&lt;br&gt;自己搭建Nginx网关&lt;br&gt;1. 需要在流水线中 更新Nginx 脚本&lt;br&gt;&lt;br&gt;2. 目前来看 端口是固定的，扩容缩在不同节点上。配置所有节点 与固定的端口，默认脚本。给出端口规划后。做好失活转移。&lt;br&gt;&lt;br&gt;3.开放给各个业务系统权限，自己去reload nginx 配置" style="text;html=1;strokeColor=none;fillColor=none;spacing=5;spacingTop=-20;whiteSpace=wrap;overflow=hidden;rounded=0;" vertex="1" parent="1">
          <mxGeometry x="600" y="90" width="190" height="170" as="geometry" />
        </mxCell>
        <mxCell id="_soJR6rPgarh7yNmM4_I-45" value="dev.jarvis.oa.com" style="shape=document;whiteSpace=wrap;html=1;boundedLbl=1;fillColor=none;" vertex="1" parent="1">
          <mxGeometry x="306.5" y="40" width="120" height="80" as="geometry" />
        </mxCell>
        <mxCell id="_soJR6rPgarh7yNmM4_I-46" value="test.jarvis.oa.com" style="shape=document;whiteSpace=wrap;html=1;boundedLbl=1;fillColor=none;" vertex="1" parent="1">
          <mxGeometry x="445.5" y="40" width="120" height="80" as="geometry" />
        </mxCell>
        <mxCell id="_soJR6rPgarh7yNmM4_I-47" value="内网域名" style="text;html=1;strokeColor=none;fillColor=none;align=center;verticalAlign=middle;whiteSpace=wrap;rounded=0;" vertex="1" parent="1">
          <mxGeometry x="330" y="20" width="57" height="20" as="geometry" />
        </mxCell>
        <mxCell id="_soJR6rPgarh7yNmM4_I-48" value="内网域名" style="text;html=1;strokeColor=none;fillColor=none;align=center;verticalAlign=middle;whiteSpace=wrap;rounded=0;" vertex="1" parent="1">
          <mxGeometry x="477" y="20" width="57" height="20" as="geometry" />
        </mxCell>
        <mxCell id="_soJR6rPgarh7yNmM4_I-49" value="" style="endArrow=classic;html=1;exitX=0.383;exitY=0.933;exitDx=0;exitDy=0;exitPerimeter=0;entryX=0.451;entryY=0.025;entryDx=0;entryDy=0;entryPerimeter=0;" edge="1" parent="1" source="_soJR6rPgarh7yNmM4_I-45" target="_soJR6rPgarh7yNmM4_I-42">
          <mxGeometry width="50" height="50" relative="1" as="geometry">
            <mxPoint x="480" y="310" as="sourcePoint" />
            <mxPoint x="530" y="260" as="targetPoint" />
          </mxGeometry>
        </mxCell>
        <mxCell id="_soJR6rPgarh7yNmM4_I-50" value="" style="endArrow=classic;html=1;exitX=0.503;exitY=0.91;exitDx=0;exitDy=0;exitPerimeter=0;entryX=0.5;entryY=0;entryDx=0;entryDy=0;" edge="1" parent="1" source="_soJR6rPgarh7yNmM4_I-46" target="_soJR6rPgarh7yNmM4_I-42">
          <mxGeometry width="50" height="50" relative="1" as="geometry">
            <mxPoint x="480" y="390" as="sourcePoint" />
            <mxPoint x="530" y="340" as="targetPoint" />
          </mxGeometry>
        </mxCell>
        <mxCell id="_soJR6rPgarh7yNmM4_I-51" value="" style="endArrow=none;dashed=1;html=1;entryX=0.5;entryY=1;entryDx=0;entryDy=0;" edge="1" parent="1" source="_soJR6rPgarh7yNmM4_I-18" target="_soJR6rPgarh7yNmM4_I-19">
          <mxGeometry width="50" height="50" relative="1" as="geometry">
            <mxPoint x="480" y="390" as="sourcePoint" />
            <mxPoint x="530" y="340" as="targetPoint" />
          </mxGeometry>
        </mxCell>
        <mxCell id="_soJR6rPgarh7yNmM4_I-52" value="" style="endArrow=none;dashed=1;html=1;exitX=0.5;exitY=0;exitDx=0;exitDy=0;" edge="1" parent="1" source="_soJR6rPgarh7yNmM4_I-30">
          <mxGeometry width="50" height="50" relative="1" as="geometry">
            <mxPoint x="269.8946366903151" y="354.50943853393176" as="sourcePoint" />
            <mxPoint x="470" y="290" as="targetPoint" />
          </mxGeometry>
        </mxCell>
        <mxCell id="_soJR6rPgarh7yNmM4_I-53" value="" style="endArrow=none;dashed=1;html=1;exitX=0.5;exitY=0;exitDx=0;exitDy=0;entryX=0.5;entryY=1;entryDx=0;entryDy=0;" edge="1" parent="1" source="_soJR6rPgarh7yNmM4_I-38" target="_soJR6rPgarh7yNmM4_I-19">
          <mxGeometry width="50" height="50" relative="1" as="geometry">
            <mxPoint x="341.5" y="349.9999999999999" as="sourcePoint" />
            <mxPoint x="480" y="299.9999999999999" as="targetPoint" />
          </mxGeometry>
        </mxCell>
        <mxCell id="_soJR6rPgarh7yNmM4_I-54" value="" style="endArrow=none;dashed=1;html=1;exitX=0.5;exitY=0;exitDx=0;exitDy=0;entryX=0.5;entryY=1;entryDx=0;entryDy=0;" edge="1" parent="1" source="_soJR6rPgarh7yNmM4_I-40" target="_soJR6rPgarh7yNmM4_I-19">
          <mxGeometry width="50" height="50" relative="1" as="geometry">
            <mxPoint x="598.9999999999998" y="349.9999999999999" as="sourcePoint" />
            <mxPoint x="477.5" y="299.9999999999999" as="targetPoint" />
          </mxGeometry>
        </mxCell>
      </root>
    </mxGraphModel>
  </diagram>
</mxfile>
